<svg fill="none" height="24" viewBox="0 0 24 24" width="24" xmlns="http://www.w3.org/2000/svg"><path d="m12 24c6.6274 0 12-5.3726 12-12 0-6.62742-5.3726-12-12-12-6.62742 0-12 5.37258-12 12 0 6.6274 5.37258 12 12 12z" fill="#26a17b"/><path clip-rule="evenodd" d="m13.4431 13.0373v-.0015c-.0825.006-.5078.0315-1.4565.0315-.7575 0-1.2908-.0225-1.4783-.0315v.0022c-2.91599-.1282-5.09249-.636-5.09249-1.2435 0-.6067 2.1765-1.1145 5.09249-1.245v1.983c.1905.0135.7365.0458 1.491.0458.9053 0 1.359-.0375 1.4438-.045v-1.9823c2.91.1298 5.0812.6375 5.0812 1.2435 0 .6075-2.1712 1.1138-5.0812 1.2428zm0-2.6925v-1.77454h4.0605v-2.706h-11.05579v2.706h4.06049v1.77374c-3.29999.1515-5.78174.8055-5.78174 1.5885s2.48175 1.4363 5.78174 1.5885v5.6865h2.9348v-5.688c3.2947-.1515 5.7705-.8047 5.7705-1.587 0-.7822-2.4758-1.4355-5.7705-1.5877z" fill="#fff" fill-rule="evenodd"/></svg>